<?xml version="1.0" encoding="UTF-8"?>
<svg width="30px" height="30px" viewBox="0 0 30 30" version="1.1" xmlns="http://www.w3.org/2000/svg" xmlns:xlink="http://www.w3.org/1999/xlink">
    <title>icon-USDC</title>
    <g id="Home" stroke="none" stroke-width="1" fill="none" fill-rule="evenodd">
        <g id="10---Home-idea-2" transform="translate(-441.000000, -1114.000000)">
            <g id="Table" transform="translate(420.000000, 769.000000)">
                <g id="List---2备份-6" transform="translate(1.000000, 330.000000)">
                    <g id="icon-USDC" transform="translate(20.000000, 15.000000)">
                        <rect id="矩形" fill="#D8D8D8" opacity="0" x="0" y="0" width="30" height="30"></rect>
                        <g id="下载-(1)" transform="translate(0.000000, 0.000000)" fill-rule="nonzero">
                            <ellipse id="椭圆形" fill="#2674CA" cx="14.7794118" cy="15" rx="14.7794118" ry="15"></ellipse>
                            <path d="M3.71413043,15.4956522 C3.36397343,15.4956522 3.08011509,15.2075571 3.08011509,14.8521739 C3.09994403,9.94874037 6.06865634,5.55503804 10.5683504,3.76956522 C10.8896105,3.66208672 11.2374268,3.82950468 11.3587031,4.14999381 C11.4799794,4.47048295 11.3319988,4.83115766 11.0224425,4.96956522 C7.00924356,6.56099365 4.36131934,10.4792512 4.34386189,14.8521739 C4.34386985,15.2058661 4.06261332,15.4932624 3.71413043,15.4956522 L3.71413043,15.4956522 Z" id="路径" fill="#FFFFFF"></path>
                            <path d="M25.848977,15.4956522 C25.49882,15.4956522 25.2149616,15.2075571 25.2149616,14.8521739 C25.2163482,10.6275162 22.7428928,6.80641795 18.9219309,5.13043478 C18.6971885,5.05153702 18.5348459,4.85163153 18.5014527,4.61266637 C18.4680595,4.3737012 18.5692317,4.13586451 18.7634954,3.99665362 C18.9577592,3.85744273 19.2124439,3.84026953 19.4231458,3.95217391 C23.7095753,5.83144412 26.4845577,10.1175676 26.482993,14.8565217 C26.4806377,15.2102059 26.1974678,15.4956522 25.848977,15.4956522 L25.848977,15.4956522 Z" id="路径" fill="#FFFFFF"></path>
                            <path d="M3.71413043,15.4956522 C3.36397343,15.4956522 3.08011509,15.2075571 3.08011509,14.8521739 C3.09994403,9.94874037 6.06865634,5.55503804 10.5683504,3.76956522 C10.8896105,3.66208672 11.2374268,3.82950468 11.3587031,4.14999381 C11.4799794,4.47048295 11.3319988,4.83115766 11.0224425,4.96956522 C7.00924356,6.56099365 4.36131934,10.4792512 4.34386189,14.8521739 C4.34386985,15.2058661 4.06261332,15.4932624 3.71413043,15.4956522 L3.71413043,15.4956522 Z" id="路径" fill="#FFFFFF"></path>
                            <path d="M25.848977,15.4956522 C25.49882,15.4956522 25.2149616,15.2075571 25.2149616,14.8521739 C25.2163482,10.6275162 22.7428928,6.80641795 18.9219309,5.13043478 C18.6971885,5.05153702 18.5348459,4.85163153 18.5014527,4.61266637 C18.4680595,4.3737012 18.5692317,4.13586451 18.7634954,3.99665362 C18.9577592,3.85744273 19.2124439,3.84026953 19.4231458,3.95217391 C23.7095753,5.83144412 26.4845577,10.1175676 26.482993,14.8565217 C26.4806377,15.2102059 26.1974678,15.4956522 25.848977,15.4956522 L25.848977,15.4956522 Z" id="路径" fill="#FFFFFF"></path>
                            <path d="M10.7953964,26.2782609 C10.7177107,26.2782609 10.6407152,26.2634605 10.5683504,26.2347826 C6.06865634,24.4493098 3.09994403,20.0556075 3.08011509,15.1521739 C3.08011509,14.7919882 3.36780935,14.5 3.72269821,14.5 C4.07758707,14.5 4.36528133,14.7919882 4.36528133,15.1521739 C4.38273878,19.5250966 7.030663,23.4433542 11.0438619,25.0347826 C11.3280991,25.146572 11.4937182,25.4478328 11.4381739,25.7520356 C11.3826297,26.0562385 11.1216467,26.2772638 10.8168159,26.2782609 L10.7953964,26.2782609 Z" id="路径" fill="#FFFFFF"></path>
                            <path d="M19.1703964,26.1087057 C18.868942,26.1099877 18.6082752,25.8956694 18.5469578,25.5961089 C18.4856403,25.2965484 18.6406297,24.9945902 18.9176471,24.873913 C22.7386089,23.1979299 25.2120644,19.3768316 25.2106777,15.1521739 C25.2106777,14.7919882 25.498372,14.5 25.8532609,14.5 C26.2081497,14.5 26.495844,14.7919882 26.495844,15.1521739 C26.495197,19.8942444 23.7146072,24.1812247 19.4231458,26.0565217 C19.3433451,26.0914253 19.2572906,26.1091891 19.1703964,26.1087057 L19.1703964,26.1087057 Z" id="路径" fill="#FFFFFF"></path>
                            <path d="M17.4097187,18.6434783 C17.4192002,18.0695487 17.1943761,17.5171964 16.788555,17.1173913 C16.1911907,16.5934891 15.4877836,16.2090783 14.7280051,15.9913043 C13.6142808,15.7061919 12.5852991,15.1511999 11.7292839,14.373913 C11.040412,13.6538376 10.6759879,12.6764544 10.7225703,11.673913 C10.6818073,10.6943988 11.014773,9.73665568 11.6521739,9 C12.3299712,8.27998484 13.2445863,7.83751136 14.2225064,7.75652174 L14.2225064,5.5826087 L15.7689898,5.5826087 L15.7689898,7.78695652 C16.7605015,7.87928137 17.6748068,8.36907711 18.309335,9.14782609 C18.9465568,10.0266139 19.2657918,11.1014944 19.2132353,12.1913043 L17.281202,12.1913043 C17.3148076,11.4568696 17.0968356,10.7332783 16.6643223,10.1434783 C16.2503989,9.61808251 15.6127267,9.32684714 14.9507673,9.36086957 C14.3282872,9.28092896 13.7038353,9.49319896 13.2543669,9.93752709 C12.8048985,10.3818552 12.5793924,11.0098228 12.6417519,11.6434783 C12.6174931,12.2252124 12.8332891,12.7908745 13.2372123,13.2043478 C13.865944,13.7282743 14.5954712,14.1132904 15.379156,14.3347826 C16.4780582,14.6410049 17.4925226,15.2004438 18.3436061,15.9695652 C19.0121621,16.6825074 19.3622826,17.6432 19.3117647,18.626087 C19.3616015,19.6343166 18.9970492,20.6183416 18.3050512,21.3434783 C17.5447447,22.0546383 16.5655139,22.4770613 15.533376,22.5391304 L15.533376,24.4478261 L13.9954604,24.4478261 L13.9954604,22.5521739 C12.9613683,22.4724472 11.9864505,22.0314883 11.2366368,21.3043478 C10.5197997,20.5913043 10.1742327,19.5463768 10.1999361,18.1695652 L10.1999361,18.1217391 L12.0591432,18.1217391 C12.0591432,19.142029 12.3133205,19.8666667 12.8216752,20.2956522 C13.3429844,20.7346701 14.0037292,20.9664466 14.6808824,20.9478261 C15.3889405,20.9900519 16.0883521,20.7724673 16.6514706,20.3347826 C17.1495925,19.9213488 17.4298422,19.29624 17.4097187,18.6434783 L17.4097187,18.6434783 Z" id="路径" fill="#FFFFFF"></path>
                        </g>
                    </g>
                </g>
            </g>
        </g>
    </g>
</svg>